<svg width="755" height="755" viewBox="0 0 755 755" fill="none" xmlns="http://www.w3.org/2000/svg">
<rect width="755" height="755" fill="#0F3460"/>
<path d="M153 217C153 199.33 167.33 185 185 185H569C586.7 185 601 199.33 601 217C601 234.7 586.7 249 569 249H185C167.33 249 153 234.7 153 217ZM153 377C153 359.3 167.33 345 185 345H569C586.7 345 601 359.3 601 377C601 394.7 586.7 409 569 409H185C167.33 409 153 394.7 153 377ZM569 569H185C167.33 569 153 554.7 153 537C153 519.3 167.33 505 185 505H569C586.7 505 601 519.3 601 537C601 554.7 586.7 569 569 569Z" fill="white"/>
</svg>
