<svg width="755" height="755" viewBox="0 0 755 755" fill="none" xmlns="http://www.w3.org/2000/svg">
<rect width="755" height="755" fill="#0F3460"/>
<g clip-path="url(#clip0_1022_315)">
<path d="M557.984 501.516C572.633 516.164 572.633 539.895 557.984 554.543C550.719 561.867 541.109 565.5 531.5 565.5C521.891 565.5 512.305 561.838 504.992 554.514L381.5 431.086L258.02 554.484C250.695 561.867 241.098 565.5 231.5 565.5C221.902 565.5 212.316 561.867 204.986 554.484C190.338 539.836 190.338 516.105 204.986 501.457L328.502 377.941L204.986 254.484C190.338 239.836 190.338 216.105 204.986 201.457C219.635 186.809 243.365 186.809 258.014 201.457L381.5 325.031L505.016 201.516C519.664 186.867 543.395 186.867 558.043 201.516C572.691 216.164 572.691 239.895 558.043 254.543L434.527 378.059L557.984 501.516Z" fill="#F3F3F3"/>
</g>
<defs>
<clipPath id="clip0_1022_315">
<rect width="375" height="600" fill="white" transform="translate(194 78)"/>
</clipPath>
</defs>
</svg>
